<svg width="60" height="62" viewBox="0 0 60 62" fill="none" xmlns="http://www.w3.org/2000/svg">
<path fill-rule="evenodd" clip-rule="evenodd" d="M30.125 0.604004C69.6489 0.604098 69.5669 61.9398 30.125 61.9399C-9.31702 61.9399 -9.23502 0.604004 30.125 0.604004ZM16.4248 28.188C15.7054 43.0441 20.2705 59.0698 30.125 59.0698C32.2514 59.0698 35.1252 57.2881 36.748 55.9116C37.9336 53.4135 38.9719 50.0923 35.4228 46.5522C30.0328 41.1758 20.0121 36.3614 16.4248 28.188ZM30.125 3.39209C25.7187 3.39209 22.0742 6.604 20.0781 11.4673C19.5742 13.104 19.9144 14.1879 20.3379 15.7368C22.7914 24.7102 36.8381 31.9718 38.5127 41.2104C39.4369 46.3095 39.3379 48.5071 40.2344 50.3491C46.9567 34.6828 43.5874 3.39223 30.125 3.39209Z" fill="#E1D7F3"/>
</svg>
